<svg width="423" height="140" viewBox="0 0 423 140" fill="none" xmlns="http://www.w3.org/2000/svg">
<path d="M24.6732 53.152C16.9452 53.152 10.9212 51.064 6.60122 46.888C2.28122 42.712 0.121219 36.856 0.121219 29.32V1.6H17.1132V28.816C17.1132 32.512 17.7612 35.2 19.0572 36.88C20.4012 38.56 22.3212 39.4 24.8172 39.4C27.3132 39.4 29.2092 38.56 30.5052 36.88C31.8492 35.2 32.5212 32.512 32.5212 28.816V1.6H49.2252V29.32C49.2252 36.856 47.0652 42.712 42.7452 46.888C38.4252 51.064 32.4012 53.152 24.6732 53.152ZM106.694 1.6V52H92.7262L73.5742 29.104V52H57.0142V1.6H70.9822L90.1342 24.496V1.6H106.694ZM135.401 35.296L131.585 39.544V52H114.881V1.6H131.585V19.888L148.145 1.6H166.649L146.489 23.776L167.657 52H148.001L135.401 35.296ZM219.616 1.6V52H205.648L186.496 29.104V52H169.936V1.6H183.904L203.056 24.496V1.6H219.616ZM254.227 53.152C248.803 53.152 243.931 52.024 239.611 49.768C235.291 47.512 231.907 44.392 229.459 40.408C227.011 36.376 225.787 31.84 225.787 26.8C225.787 21.76 227.011 17.248 229.459 13.264C231.907 9.232 235.291 6.088 239.611 3.832C243.931 1.576 248.803 0.447999 254.227 0.447999C259.651 0.447999 264.523 1.576 268.843 3.832C273.163 6.088 276.547 9.232 278.995 13.264C281.443 17.248 282.667 21.76 282.667 26.8C282.667 31.84 281.443 36.376 278.995 40.408C276.547 44.392 273.163 47.512 268.843 49.768C264.523 52.024 259.651 53.152 254.227 53.152ZM254.227 39.4C256.339 39.4 258.235 38.896 259.915 37.888C261.643 36.832 263.011 35.368 264.019 33.496C265.027 31.576 265.531 29.344 265.531 26.8C265.531 24.256 265.027 22.048 264.019 20.176C263.011 18.256 261.643 16.792 259.915 15.784C258.235 14.728 256.339 14.2 254.227 14.2C252.115 14.2 250.195 14.728 248.467 15.784C246.787 16.792 245.443 18.256 244.435 20.176C243.427 22.048 242.923 24.256 242.923 26.8C242.923 29.344 243.427 31.576 244.435 33.496C245.443 35.368 246.787 36.832 248.467 37.888C250.195 38.896 252.115 39.4 254.227 39.4ZM369.014 1.6L352.886 52H334.67L326.534 25.072L317.966 52H299.75L283.622 1.6H301.118L309.902 30.256L319.19 1.6H334.814L343.598 30.616L352.886 1.6H369.014ZM422.468 1.6V52H408.5L389.348 29.104V52H372.788V1.6H386.756L405.908 24.496V1.6H422.468ZM130.733 113.648C133.709 114.752 136.013 116.36 137.645 118.472C139.277 120.584 140.093 123.128 140.093 126.104C140.093 130.52 138.269 133.952 134.621 136.4C130.973 138.8 125.693 140 118.781 140H90.4126V89.6H117.341C124.061 89.6 129.125 90.8 132.533 93.2C135.989 95.6 137.717 98.792 137.717 102.776C137.717 105.128 137.117 107.24 135.917 109.112C134.765 110.984 133.037 112.496 130.733 113.648ZM107.117 101.48V108.968H115.037C118.733 108.968 120.581 107.72 120.581 105.224C120.581 102.728 118.733 101.48 115.037 101.48H107.117ZM117.341 128.12C121.085 128.12 122.957 126.8 122.957 124.16C122.957 121.52 121.085 120.2 117.341 120.2H107.117V128.12H117.341ZM167.7 127.328H163.092V140H146.1V89.6H170.364C175.02 89.6 179.076 90.368 182.532 91.904C185.988 93.44 188.652 95.648 190.524 98.528C192.396 101.408 193.332 104.768 193.332 108.608C193.332 112.208 192.516 115.352 190.884 118.04C189.252 120.728 186.9 122.864 183.828 124.448L194.412 140H176.268L167.7 127.328ZM176.196 108.608C176.196 106.736 175.62 105.296 174.468 104.288C173.316 103.232 171.588 102.704 169.284 102.704H163.092V114.512H169.284C171.588 114.512 173.316 114.008 174.468 113C175.62 111.944 176.196 110.48 176.196 108.608ZM234.093 131.216H214.941L211.557 140H194.277L216.309 89.6H233.013L255.045 140H237.477L234.093 131.216ZM229.413 118.976L224.517 106.304L219.621 118.976H229.413ZM257.756 89.6H274.748V140H257.756V89.6ZM332.608 89.6V140H318.64L299.488 117.104V140H282.928V89.6H296.896L316.048 112.496V89.6H332.608Z" fill="black"/>
</svg>
