<svg width="219" height="177" viewBox="0 0 219 177" fill="none" xmlns="http://www.w3.org/2000/svg">
<path d="M197.276 98.6421C191.018 94.9919 184.761 91.3418 178.503 87.6916C167.553 81.4342 157.124 75.1768 146.173 68.9194C135.744 62.662 125.837 56.9261 115.408 50.6687C113.322 49.6258 110.715 49.1043 108.629 48.0614C105.5 47.0185 104.979 43.8898 106.022 41.2826C108.108 35.0252 111.758 29.8107 116.451 25.1176C116.972 23.5533 117.494 20.4246 117.494 18.3388C117.494 17.8173 115.929 16.253 114.886 16.253C109.15 15.7315 103.415 15.7315 97.1571 16.253C93.507 16.253 94.0284 19.3817 94.0284 21.4675C93.507 33.4608 93.507 45.4542 93.507 57.4475C93.507 66.8336 93.507 76.7412 93.507 86.1273C93.507 94.4705 93.507 102.814 92.9855 111.678C92.9855 116.371 89.3354 120.021 85.6852 122.629C76.8206 128.365 67.956 133.579 59.0913 139.315C57.0055 140.879 54.9197 141.922 52.8339 142.965C50.2267 144.53 48.1409 144.008 46.5765 142.444C44.4907 139.837 42.4049 137.229 41.362 134.101C38.2333 124.715 35.1046 115.85 31.9759 106.464C28.8472 97.0777 26.24 87.6916 23.1113 78.3055C18.9397 66.3122 14.7681 54.8403 11.1179 42.8469C14.2466 41.804 17.3753 41.2826 19.9826 40.7611C21.5469 40.2397 23.6327 39.1968 24.6756 37.6324C28.3258 33.4608 30.933 35.0252 33.0188 39.7182C36.1475 47.54 38.7548 55.3617 41.362 63.1835C43.4478 69.4409 45.0122 75.6983 46.5765 82.4771C49.7052 95.5134 53.3554 109.071 56.4841 122.629C62.7415 118.979 68.4774 115.85 73.1705 112.2C75.2563 110.635 75.7777 106.464 75.7777 103.335C75.7777 92.3847 75.7777 81.4342 75.7777 71.0052C75.7777 67.3551 76.2991 64.2264 76.2991 60.5762C76.2991 47.54 76.2991 34.5037 76.2991 21.4675C76.2991 19.3817 76.2991 16.7744 76.2991 14.6886C76.2991 7.38833 81.5137 2.17383 88.8139 2.17383C98.7215 2.17383 109.15 3.73818 119.058 2.69528C126.358 1.65238 130.008 5.82398 134.702 9.47413C135.223 9.99558 135.744 11.0385 135.744 12.0814C135.744 16.253 134.702 20.4246 135.223 24.5962C135.744 28.7678 134.18 30.8536 131.051 32.9394C128.444 34.5037 126.358 36.5895 123.751 39.1968C132.094 43.8898 139.916 48.5829 147.216 52.7545C158.688 59.5333 170.16 66.3122 182.153 73.091C191.018 78.3055 200.404 82.9986 209.269 87.6916C209.79 88.2131 210.312 88.2131 210.833 88.7345C217.612 93.949 218.134 92.9061 213.44 101.249C209.79 108.028 205.619 114.286 201.969 121.064C199.883 125.236 196.754 127.322 192.061 127.843C182.675 129.408 173.81 132.015 164.424 134.101C156.081 136.186 147.216 137.751 138.873 139.315C137.309 134.622 136.266 129.929 134.702 124.715C136.787 124.193 139.395 123.672 142.002 123.15C148.259 122.107 153.995 121.586 160.253 120.021C165.989 118.979 171.724 117.414 177.46 115.85C184.239 114.286 189.454 112.2 192.582 105.421C194.147 102.814 195.711 101.249 197.276 98.6421Z" fill="#101010"/>
<path d="M2.77539 21.4691C2.77539 16.2546 6.94699 13.1259 10.5971 13.6473C12.6829 14.1688 14.7687 14.6902 16.8545 15.2117C19.9832 15.7331 23.6334 19.3833 23.1119 21.9905C23.1119 26.6836 20.5047 30.3337 16.3331 30.3337C15.8116 30.3337 15.2902 30.3337 15.2902 30.3337C12.6829 30.3337 9.03279 31.3766 7.98989 30.3337C5.38264 27.7265 3.81829 23.5549 2.77539 21.4691Z" fill="#101010"/>
<path d="M111.761 137.229C112.283 132.536 116.455 128.886 121.148 129.408C125.841 129.929 128.448 132.015 127.926 136.187C127.405 141.923 123.755 144.53 118.019 144.008C114.369 143.487 111.761 140.358 111.761 137.229Z" fill="#101010"/>
<path d="M120.623 151.829C125.837 151.308 127.401 155.479 128.966 159.129C130.009 162.78 129.487 166.951 128.444 171.123C124.794 164.865 118.015 160.172 120.623 151.829Z" fill="#101010"/>
<path d="M197.276 98.6421C191.018 94.9919 184.761 91.3418 178.503 87.6916C167.553 81.4342 157.124 75.1768 146.173 68.9194C135.744 62.662 125.837 56.9261 115.408 50.6687C113.322 49.6258 110.715 49.1043 108.629 48.0614C105.5 47.0185 104.979 43.8898 106.022 41.2826C108.108 35.0252 111.758 29.8107 116.451 25.1176C116.972 23.5533 117.494 20.4246 117.494 18.3388C117.494 17.8173 115.929 16.253 114.886 16.253C109.15 15.7315 103.415 15.7315 97.1571 16.253C93.507 16.253 94.0284 19.3817 94.0284 21.4675C93.507 33.4608 93.507 45.4542 93.507 57.4475C93.507 66.8336 93.507 76.7412 93.507 86.1273C93.507 94.4705 93.507 102.814 92.9855 111.678C92.9855 116.371 89.3354 120.021 85.6852 122.629C76.8206 128.365 67.956 133.579 59.0913 139.315C57.0055 140.879 54.9197 141.922 52.8339 142.965C50.2267 144.53 48.1409 144.008 46.5765 142.444C44.4907 139.837 42.4049 137.229 41.362 134.101C38.2333 124.715 35.1046 115.85 31.9759 106.464C28.8472 97.0777 26.24 87.6916 23.1113 78.3055C18.9397 66.3122 14.7681 54.8403 11.1179 42.8469C14.2466 41.804 17.3753 41.2826 19.9826 40.7611C21.5469 40.2397 23.6327 39.1968 24.6756 37.6324C28.3258 33.4608 30.933 35.0252 33.0188 39.7182C36.1475 47.54 38.7548 55.3617 41.362 63.1835C43.4478 69.4409 45.0122 75.6983 46.5765 82.4771C49.7052 95.5134 53.3554 109.071 56.4841 122.629C62.7415 118.979 68.4774 115.85 73.1705 112.2C75.2563 110.635 75.7777 106.464 75.7777 103.335C75.7777 92.3847 75.7777 81.4342 75.7777 71.0052C75.7777 67.3551 76.2991 64.2264 76.2991 60.5762C76.2991 47.54 76.2991 34.5037 76.2991 21.4675C76.2991 19.3817 76.2991 16.7744 76.2991 14.6886C76.2991 7.38833 81.5137 2.17383 88.8139 2.17383C98.7215 2.17383 109.15 3.73818 119.058 2.69528C126.358 1.65238 130.008 5.82398 134.702 9.47413C135.223 9.99558 135.744 11.0385 135.744 12.0814C135.744 16.253 134.702 20.4246 135.223 24.5962C135.744 28.7678 134.18 30.8536 131.051 32.9394C128.444 34.5037 126.358 36.5895 123.751 39.1968C132.094 43.8898 139.916 48.5829 147.216 52.7545C158.688 59.5333 170.16 66.3122 182.153 73.091C191.018 78.3055 200.404 82.9986 209.269 87.6916C209.79 88.2131 210.312 88.2131 210.833 88.7345C217.612 93.949 218.134 92.9061 213.44 101.249C209.79 108.028 205.619 114.286 201.969 121.064C199.883 125.236 196.754 127.322 192.061 127.843C182.675 129.408 173.81 132.015 164.424 134.101C156.081 136.186 147.216 137.751 138.873 139.315C137.309 134.622 136.266 129.929 134.702 124.715C136.787 124.193 139.395 123.672 142.002 123.15C148.259 122.107 153.995 121.586 160.253 120.021C165.989 118.979 171.724 117.414 177.46 115.85C184.239 114.286 189.454 112.2 192.582 105.421C194.147 102.814 195.711 101.249 197.276 98.6421Z" stroke="#101010" stroke-width="2"/>
<path d="M2.77539 21.4691C2.77539 16.2546 6.94699 13.1259 10.5971 13.6473C12.6829 14.1688 14.7687 14.6902 16.8545 15.2117C19.9832 15.7331 23.6334 19.3833 23.1119 21.9905C23.1119 26.6836 20.5047 30.3337 16.3331 30.3337C15.8116 30.3337 15.2902 30.3337 15.2902 30.3337C12.6829 30.3337 9.03279 31.3766 7.98989 30.3337C5.38264 27.7265 3.81829 23.5549 2.77539 21.4691Z" stroke="#101010" stroke-width="2"/>
<path d="M111.761 137.229C112.283 132.536 116.455 128.886 121.148 129.408C125.841 129.929 128.448 132.015 127.926 136.187C127.405 141.923 123.755 144.53 118.019 144.008C114.369 143.487 111.761 140.358 111.761 137.229Z" stroke="#101010" stroke-width="2"/>
<path d="M120.623 151.829C125.837 151.308 127.401 155.479 128.966 159.129C130.009 162.78 129.487 166.951 128.444 171.123C124.794 164.865 118.015 160.172 120.623 151.829Z" stroke="#101010" stroke-width="2"/>
</svg>
